<svg xmlns="http://www.w3.org/2000/svg" width="322" height="322" fill="none"><path stroke="#263238" stroke-miterlimit="10" stroke-width="2" d="m44.473 210.929 6.324 60.606m-.385-6.753-4.797-5.067"/><path fill="#98E4FF" stroke="#263238" stroke-miterlimit="10" d="M47.073 261.233s.137-2.241-1.91-4.069c-1.231-1.1-7.712-3.826-8.327-1.544-.668 2.482 5.965 7.358 10.237 5.613Z"/><path stroke="#263238" stroke-miterlimit="10" stroke-width=".5" d="m47.073 261.233-6.17-3.844"/><path stroke="#263238" stroke-miterlimit="10" stroke-width="2" d="m48.458 246.049-4.798-5.067"/><path fill="#98E4FF" stroke="#263238" stroke-miterlimit="10" d="M45.118 242.5s.137-2.241-1.91-4.069c-1.23-1.1-7.711-3.826-8.326-1.544-.67 2.483 5.964 7.358 10.236 5.613Z"/><path stroke="#263238" stroke-miterlimit="10" stroke-width=".5" d="m45.118 242.5-6.17-3.844"/><path stroke="#263238" stroke-miterlimit="10" stroke-width="2" d="m46.494 227.235-4.798-5.067"/><path fill="#98E4FF" stroke="#263238" stroke-miterlimit="10" d="M43.154 223.686s.138-2.241-1.909-4.07c-1.231-1.1-7.712-3.826-8.327-1.543-.67 2.483 5.964 7.358 10.236 5.613Z"/><path stroke="#263238" stroke-miterlimit="10" stroke-width=".5" d="m43.154 223.686-6.17-3.845"/><path stroke="#263238" stroke-miterlimit="10" stroke-width="2" d="m49.376 255.752 3.648-5.948"/><path fill="#98E4FF" stroke="#263238" stroke-miterlimit="10" d="M51.91 251.59s-.596-2.164 1.029-4.376c.977-1.33 6.755-5.336 7.828-3.229 1.168 2.291-4.316 8.431-8.856 7.605Z"/><path stroke="#263238" stroke-miterlimit="10" stroke-width=".5" d="m51.91 251.59 5.556-5.309"/><path stroke="#263238" stroke-miterlimit="10" stroke-width="2" d="m47.984 242.416 3.648-5.948"/><path fill="#98E4FF" stroke="#263238" stroke-miterlimit="10" d="M50.52 238.254s-.598-2.164 1.027-4.376c.978-1.33 6.756-5.335 7.83-3.229 1.166 2.291-4.318 8.431-8.858 7.605Z"/><path stroke="#263238" stroke-miterlimit="10" stroke-width=".5" d="m50.52 238.254 5.554-5.31"/><path stroke="#263238" stroke-miterlimit="10" stroke-width="2" d="m45.944 222.866 3.648-5.949"/><path fill="#98E4FF" stroke="#263238" stroke-miterlimit="10" d="M48.48 218.704s-.598-2.165 1.028-4.376c.977-1.33 6.755-5.336 7.828-3.23 1.166 2.291-4.317 8.431-8.857 7.606Z"/><path stroke="#263238" stroke-miterlimit="10" stroke-width=".5" d="m48.48 218.704 5.554-5.31"/><path fill="#98E4FF" stroke="#263238" stroke-miterlimit="10" d="M44.384 210.366s-.597-2.165 1.028-4.376c.977-1.331 6.755-5.336 7.829-3.23 1.167 2.291-4.317 8.431-8.857 7.606Z"/><path stroke="#263238" stroke-miterlimit="10" stroke-width=".5" d="m44.384 210.366 5.555-5.31"/><path fill="#98E4FF" stroke="#263238" stroke-miterlimit="10" d="M44.706 210.594s-2.216.367-4.244-1.481c-1.22-1.111-4.598-7.278-2.39-8.124 2.4-.92 7.93 5.177 6.634 9.605Z"/><path stroke="#263238" stroke-miterlimit="10" stroke-width=".5" d="m44.706 210.594-4.698-6.081"/><path stroke="#263238" stroke-miterlimit="10" stroke-width="2" d="m72.383 224.893-4.953 46.661m1.62-11.473-3.65-5.946"/><path fill="#98E4FF" stroke="#263238" stroke-miterlimit="10" d="M66.514 255.921s.595-2.165-1.03-4.375c-.98-1.33-6.76-5.332-7.832-3.225-1.165 2.291 4.322 8.428 8.862 7.6Z"/><path stroke="#263238" stroke-miterlimit="10" stroke-width=".5" d="m66.514 255.921-5.246-5.033"/><path stroke="#263238" stroke-miterlimit="10" stroke-width="2" d="m71.004 241.266-3.651-5.946"/><path fill="#98E4FF" stroke="#263238" stroke-miterlimit="10" d="M68.466 237.105s.596-2.165-1.03-4.375c-.98-1.33-6.76-5.332-7.831-3.225-1.166 2.292 4.322 8.428 8.861 7.6Z"/><path stroke="#263238" stroke-miterlimit="10" stroke-width=".5" d="m68.466 237.105-5.245-5.033"/><path stroke="#263238" stroke-miterlimit="10" stroke-width="2" d="m67.952 269.766 4.794-5.07"/><path fill="#98E4FF" stroke="#263238" stroke-miterlimit="10" d="M71.29 266.215s-.139-2.241 1.906-4.07c1.231-1.101 7.71-3.831 8.326-1.548.671 2.481-5.96 7.36-10.233 5.618Z"/><path stroke="#263238" stroke-miterlimit="10" stroke-width=".5" d="m71.29 266.215 6.53-4.052"/><path stroke="#263238" stroke-miterlimit="10" stroke-width="2" d="m69.336 256.429 4.794-5.07"/><path fill="#98E4FF" stroke="#263238" stroke-miterlimit="10" d="M72.674 252.878s-.139-2.241 1.906-4.07c1.231-1.1 7.71-3.83 8.326-1.549.671 2.482-5.96 7.362-10.233 5.619Z"/><path stroke="#263238" stroke-miterlimit="10" stroke-width=".5" d="m72.674 252.878 6.53-4.052"/><path stroke="#263238" stroke-miterlimit="10" stroke-width="2" d="m71.365 236.877 4.794-5.07"/><path fill="#98E4FF" stroke="#263238" stroke-miterlimit="10" d="M74.703 233.326s-.139-2.241 1.907-4.07c1.23-1.101 7.71-3.831 8.325-1.549.67 2.482-5.96 7.361-10.232 5.619Z"/><path stroke="#263238" stroke-miterlimit="10" stroke-width=".5" d="m74.703 233.326 6.53-4.052"/><path fill="#98E4FF" stroke="#263238" stroke-miterlimit="10" d="M72.412 224.324s-.139-2.241 1.907-4.071c1.23-1.1 7.71-3.83 8.326-1.548.67 2.482-5.96 7.361-10.233 5.619Z"/><path stroke="#263238" stroke-miterlimit="10" stroke-width=".5" d="m72.412 224.324 6.53-4.053"/><path fill="#98E4FF" stroke="#263238" stroke-miterlimit="10" d="M72.68 224.614s-2.244-.097-3.848-2.323c-.965-1.34-3.001-8.069-.666-8.442 2.538-.407 6.695 6.698 4.514 10.765Z"/><path stroke="#263238" stroke-miterlimit="10" stroke-width=".5" d="m72.68 224.614-3.346-6.919"/><path stroke="#263238" stroke-miterlimit="10" stroke-width="2" d="M60.325 183.601v87.94m.102-3.087-4.245-5.538"/><path fill="#98E4FF" stroke="#263238" stroke-miterlimit="10" d="M57.474 264.578s.369-2.215-1.477-4.246c-1.11-1.221-7.273-4.605-8.121-2.399-.923 2.399 5.168 7.937 9.598 6.645Z"/><path stroke="#263238" stroke-miterlimit="10" stroke-width=".5" d="m57.474 264.578-5.738-4.464"/><path stroke="#263238" stroke-miterlimit="10" stroke-width="2" d="m60.427 240.161-4.245-5.537"/><path fill="#98E4FF" stroke="#263238" stroke-miterlimit="10" d="M57.474 236.285s.369-2.215-1.477-4.245c-1.11-1.222-7.273-4.606-8.121-2.4-.923 2.4 5.168 7.937 9.598 6.645Z"/><path stroke="#263238" stroke-miterlimit="10" stroke-width=".5" d="m57.474 236.285-5.738-4.464"/><path stroke="#263238" stroke-miterlimit="10" stroke-width="2" d="m60.427 221.327-4.245-5.537"/><path fill="#98E4FF" stroke="#263238" stroke-miterlimit="10" d="M57.474 217.45s.369-2.215-1.477-4.245c-1.11-1.221-7.273-4.606-8.121-2.399-.923 2.399 5.168 7.937 9.598 6.644Z"/><path stroke="#263238" stroke-miterlimit="10" stroke-width=".5" d="m57.474 217.45-5.738-4.464"/><path stroke="#263238" stroke-miterlimit="10" stroke-width="2" d="m60.427 202.41-4.245-5.537"/><path fill="#98E4FF" stroke="#263238" stroke-miterlimit="10" d="M57.474 198.534s.369-2.214-1.477-4.245c-1.11-1.222-7.273-4.606-8.121-2.4-.923 2.399 5.168 7.937 9.598 6.645Z"/><path stroke="#263238" stroke-miterlimit="10" stroke-width=".5" d="m57.474 198.534-5.738-4.464"/><path stroke="#263238" stroke-miterlimit="10" stroke-width="2" d="m60.333 261.584 4.246-5.537"/><path fill="#98E4FF" stroke="#263238" stroke-miterlimit="10" d="M63.287 257.708s-.37-2.215 1.476-4.246c1.11-1.221 7.273-4.606 8.122-2.399.922 2.399-5.168 7.937-9.599 6.645Z"/><path stroke="#263238" stroke-miterlimit="10" stroke-width=".5" d="m63.287 257.708 6.076-4.705"/><path stroke="#263238" stroke-miterlimit="10" stroke-width="2" d="m60.333 242.668 4.246-5.538"/><path fill="#98E4FF" stroke="#263238" stroke-miterlimit="10" d="M63.287 238.791s-.37-2.215 1.476-4.245c1.11-1.222 7.273-4.606 8.122-2.399.922 2.399-5.168 7.936-9.599 6.644Z"/><path stroke="#263238" stroke-miterlimit="10" stroke-width=".5" d="m63.287 238.791 6.076-4.704"/><path stroke="#263238" stroke-miterlimit="10" stroke-width="2" d="m60.333 217.664 4.246-5.537"/><path fill="#98E4FF" stroke="#263238" stroke-miterlimit="10" d="M63.287 213.788s-.37-2.215 1.476-4.245c1.11-1.222 7.273-4.606 8.122-2.4.922 2.4-5.168 7.938-9.599 6.645Z"/><path stroke="#263238" stroke-miterlimit="10" stroke-width=".5" d="m63.287 213.788 6.076-4.704"/><path stroke="#263238" stroke-miterlimit="10" stroke-width="2" d="m60.333 198.008 4.246-5.538"/><path fill="#98E4FF" stroke="#263238" stroke-miterlimit="10" d="M63.287 194.131s-.37-2.215 1.476-4.245c1.11-1.222 7.273-4.606 8.122-2.4.923 2.4-5.168 7.938-9.598 6.645Z"/><path stroke="#263238" stroke-miterlimit="10" stroke-width=".5" d="m63.287 194.131 6.076-4.704"/><path fill="#98E4FF" stroke="#263238" stroke-miterlimit="10" d="M60.08 185.413s-.37-2.214 1.476-4.245c1.11-1.222 7.273-4.606 8.122-2.399.922 2.398-5.17 7.936-9.599 6.644Z"/><path stroke="#263238" stroke-miterlimit="10" stroke-width=".5" d="m60.08 185.413 6.076-4.704"/><path fill="#98E4FF" stroke="#263238" stroke-miterlimit="10" d="M60.376 185.675s-2.242.134-4.068-1.914c-1.099-1.233-3.818-7.716-1.535-8.328 2.484-.667 7.352 5.971 5.603 10.242Z"/><path stroke="#263238" stroke-miterlimit="10" stroke-width=".5" d="m60.376 185.675-4.042-6.537"/><path stroke="#263238" stroke-linecap="round" stroke-linejoin="round" stroke-miterlimit="10" d="M14.721 271.487h285.156"/><path fill="#fff" stroke="#263238" stroke-linecap="round" stroke-linejoin="round" stroke-miterlimit="10" d="M260.555 170.684c21.319 0 38.602-17.283 38.602-38.602s-17.283-38.6-38.602-38.6-38.601 17.281-38.601 38.6 17.282 38.602 38.601 38.602"/><path fill="#98E4FF" stroke="#263238" stroke-linecap="round" stroke-linejoin="round" stroke-miterlimit="10" d="M297.737 69.45h-6.299c-2.473-2.67-5.998-4.352-9.924-4.352-3.927 0-7.452 1.682-9.925 4.352h-6.551l3.12 11.308c1.02 6.467 6.602 11.417 13.356 11.417 6.641 0 12.155-4.785 13.307-11.093h.016z"/><path fill="#98E4FF" stroke="#263238" stroke-linecap="round" stroke-linejoin="round" stroke-miterlimit="10" d="M281.514 83.836c9.161 0 16.588-7.427 16.588-16.589s-7.427-16.589-16.588-16.589-16.589 7.427-16.589 16.59c0 9.16 7.427 16.588 16.589 16.588"/><path fill="#98E4FF" stroke="#263238" stroke-linecap="round" stroke-linejoin="round" stroke-miterlimit="10" d="M281.514 81.692c7.977 0 14.445-6.467 14.445-14.445s-6.468-14.445-14.445-14.445-14.445 6.467-14.445 14.445 6.467 14.445 14.445 14.445"/><path fill="#fff" stroke="#263238" stroke-linecap="round" stroke-linejoin="round" stroke-miterlimit="10" d="M281.514 55.907c-7.481 0-13.546 6.065-13.546 13.545 0 1.655.311 3.232.854 4.698 2.45 4.493 7.214 7.542 12.691 7.542s10.242-3.05 12.691-7.542c.543-1.466.854-3.043.854-4.698 0-7.48-6.064-13.545-13.544-13.545"/><path fill="#98E4FF" stroke="#263238" stroke-linecap="round" stroke-linejoin="round" stroke-miterlimit="10" d="M262.19 111.583a3.09 3.09 0 1 1-5.353-3.086 3.09 3.09 0 0 1 5.353 3.086"/><path fill="#98E4FF" stroke="#263238" stroke-linecap="round" stroke-linejoin="round" stroke-miterlimit="10" d="M265.275 115.754a3.089 3.089 0 1 1-5.353-3.086 3.09 3.09 0 1 1 5.353 3.086"/><path fill="#98E4FF" stroke="#263238" stroke-linecap="round" stroke-linejoin="round" stroke-miterlimit="10" d="M264.953 120.089a3.09 3.09 0 1 1-5.354-3.085 3.09 3.09 0 0 1 5.354 3.085m3.368-15.137a3.09 3.09 0 1 1-5.354-3.087 3.09 3.09 0 0 1 5.354 3.087"/><path fill="#98E4FF" stroke="#263238" stroke-linecap="round" stroke-linejoin="round" stroke-miterlimit="10" d="M272.156 109.339a3.09 3.09 0 1 1-5.355-3.088 3.09 3.09 0 0 1 5.355 3.088m-8.388-8.687a3.09 3.09 0 1 1-5.354-3.087 3.09 3.09 0 0 1 5.354 3.087m-6.395-2.849a3.09 3.09 0 1 1-5.354-3.087 3.09 3.09 0 1 1 5.354 3.087m4.28 20.302a3.09 3.09 0 1 1-5.354-3.086 3.09 3.09 0 0 1 5.354 3.086"/><path fill="#98E4FF" stroke="#263238" stroke-linecap="round" stroke-linejoin="round" stroke-miterlimit="10" d="M270.136 113.484a3.09 3.09 0 1 1-5.354-3.085 3.09 3.09 0 0 1 5.354 3.085m-4.959-5.489a3.09 3.09 0 1 1-5.352-3.088 3.09 3.09 0 0 1 5.352 3.088"/><path fill="#98E4FF" stroke="#263238" stroke-linecap="round" stroke-linejoin="round" stroke-miterlimit="10" d="M261.053 104.78a3.09 3.09 0 1 1-5.355-3.087 3.09 3.09 0 0 1 5.355 3.087"/><path fill="#98E4FF" stroke="#263238" stroke-linecap="round" stroke-linejoin="round" stroke-miterlimit="10" d="M257.355 102.481A3.089 3.089 0 1 1 252 99.395a3.089 3.089 0 0 1 5.355 3.086"/><path fill="#98E4FF" stroke="#263238" stroke-linecap="round" stroke-linejoin="round" stroke-miterlimit="10" d="M257.744 109.068a3.09 3.09 0 0 1-4.22 1.133 3.09 3.09 0 1 1 4.22-1.133"/><path fill="#A6A6A6" stroke="#263238" stroke-linecap="round" stroke-linejoin="round" stroke-miterlimit="10" d="M266.689 107.695c-1.682-2.31-4.249-4.656-4.249-4.656l3.98-5.043s-.227-1.639-1.474-.348c0 0-1.879 2.098-3.705 4.394a34 34 0 0 1-2.393 2.705c-.46-.069-1.985-.319-3.372-.838-1.653-.618-3.287-1.559-3.523-.859-.237.701 1.687 1.14 2.89 1.667.955.418 2.44.826 3.013.976-.512.456-.964.807-1.311 1.01-1.01.59-1.551.948-2.958 1.644-1.406.696-2.256 1.881-1.483 1.992.774.111 6.253-2.423 7.717-4.091l1.464-1.668s1.996.313 2.818 1.792 3.742 4.836 4.177 4.082.092-.45-1.591-2.759"/><path fill="#98E4FF" stroke="#263238" stroke-linecap="round" stroke-linejoin="round" stroke-miterlimit="10" d="M253.922 105.91a3.091 3.091 0 1 1-5.355-3.088 3.091 3.091 0 0 1 5.355 3.088m3.872 8.88a3.09 3.09 0 1 1-5.353-3.086 3.09 3.09 0 0 1 5.353 3.086"/><path fill="#98E4FF" stroke="#263238" stroke-linecap="round" stroke-linejoin="round" stroke-miterlimit="10" d="M257.158 121.122a3.09 3.09 0 1 1-5.354-3.088 3.09 3.09 0 0 1 5.354 3.088"/><path fill="#98E4FF" stroke="#263238" stroke-linecap="round" stroke-linejoin="round" stroke-miterlimit="10" d="M254.318 125.177a3.09 3.09 0 1 1-5.354-3.088 3.09 3.09 0 0 1 5.354 3.088m-9.503-4.139a3.089 3.089 0 1 1-5.354-3.086 3.09 3.09 0 1 1 5.354 3.086"/><path fill="#98E4FF" stroke="#263238" stroke-linecap="round" stroke-linejoin="round" stroke-miterlimit="10" d="M250.079 123.235a3.09 3.09 0 1 1-5.354-3.086 3.09 3.09 0 0 1 5.354 3.086m-3.109 7.92a3.091 3.091 0 1 1-5.355-3.088 3.091 3.091 0 0 1 5.355 3.088"/><path fill="#98E4FF" stroke="#263238" stroke-linecap="round" stroke-linejoin="round" stroke-miterlimit="10" d="M251.734 127.538a3.09 3.09 0 1 1-5.354-3.086 3.09 3.09 0 0 1 5.354 3.086m-6.11-1.512a3.09 3.09 0 1 1-5.354-3.089 3.09 3.09 0 0 1 5.354 3.089m6.841-5.768a3.09 3.09 0 1 1-5.355-3.088 3.09 3.09 0 0 1 5.355 3.088"/><path fill="#98E4FF" stroke="#263238" stroke-linecap="round" stroke-linejoin="round" stroke-miterlimit="10" d="M248.13 119.935a3.09 3.09 0 1 1-5.354-3.085 3.09 3.09 0 0 1 5.354 3.085m15.951-7.046a3.09 3.09 0 1 1-5.354-3.089 3.09 3.09 0 0 1 5.354 3.089"/><path fill="#98E4FF" stroke="#263238" stroke-linecap="round" stroke-linejoin="round" stroke-miterlimit="10" d="M252.749 116.57a3.09 3.09 0 1 1-5.354-3.086 3.09 3.09 0 0 1 5.354 3.086m-4.14-9.084a3.09 3.09 0 1 1-5.353-3.086 3.09 3.09 0 0 1 5.353 3.086"/><path fill="#98E4FF" stroke="#263238" stroke-linecap="round" stroke-linejoin="round" stroke-miterlimit="10" d="M251.821 111.351a3.089 3.089 0 1 1-5.353-3.086 3.09 3.09 0 1 1 5.353 3.086m-6.242 4.439a3.09 3.09 0 1 1-5.354-3.087 3.09 3.09 0 0 1 5.354 3.087m6.648-13.418a3.09 3.09 0 1 1-5.353-3.087 3.09 3.09 0 1 1 5.353 3.087"/><path fill="#98E4FF" stroke="#263238" stroke-linecap="round" stroke-linejoin="round" stroke-miterlimit="10" d="M249.318 115.262a3.09 3.09 0 1 1-5.354-3.089 3.09 3.09 0 0 1 5.354 3.089"/><path fill="#98E4FF" stroke="#263238" stroke-linecap="round" stroke-linejoin="round" stroke-miterlimit="10" d="M245.993 111.006a3.09 3.09 0 1 1-5.354-3.088 3.09 3.09 0 0 1 5.354 3.088m27.366 1.825a3.09 3.09 0 1 1-5.353-3.086 3.09 3.09 0 0 1 5.353 3.086m-4.521 6.1a3.09 3.09 0 1 1-5.354-3.085 3.09 3.09 0 0 1 5.354 3.085m-8.055 4.615a3.09 3.09 0 1 1-5.353-3.087 3.09 3.09 0 1 1 5.353 3.087m-13.47-21.161a3.089 3.089 0 1 1-5.355-3.086 3.089 3.089 0 0 1 5.355 3.086m6.256 6.285a3.09 3.09 0 1 1-5.355-3.085 3.09 3.09 0 0 1 5.355 3.085m-11.329 9.108a3.09 3.09 0 1 1-5.354-3.085 3.09 3.09 0 0 1 5.354 3.085m-.496 7.249a3.089 3.089 0 1 1-5.353-3.086 3.09 3.09 0 1 1 5.353 3.086"/><path fill="#fff" stroke="#263238" stroke-linecap="round" stroke-linejoin="round" stroke-miterlimit="10" d="M276.082 103.638s-5.436 8.81-7.873 12.747-6.373 6.936-5.062 8.248c1.313 1.312 10.31 9.184 12.185 10.122 1.875.937 14.809-17.62 15.558-18.745s-10.684-11.621-14.808-12.372"/><path fill="#fff" stroke="#263238" stroke-linecap="round" stroke-linejoin="round" stroke-miterlimit="10" d="M268.959 123.789a.844.844 0 1 1-1.687.001.844.844 0 0 1 1.687-.001m7.497 3.749a1.03 1.03 0 1 1-2.06.002 1.03 1.03 0 0 1 2.06-.002m-2.061-7.873a.657.657 0 1 1-1.313 0 .657.657 0 0 1 1.313 0m3.374-5.061a.844.844 0 1 1-1.688 0 .844.844 0 0 1 1.688 0m8.435 1.874a.844.844 0 1 1-1.688 0 .844.844 0 0 1 1.688 0m-3.749 5.156a.749.749 0 1 1-1.497 0 .749.749 0 0 1 1.497 0m-9.373-5.624a.75.75 0 1 0 0-1.5.75.75 0 0 0 0 1.5m6.936-6.467a.843.843 0 1 1-1.687.001.843.843 0 0 1 1.687-.001m-.375 17.245a.655.655 0 1 1-1.31.002.655.655 0 0 1 1.31-.002"/><path fill="#fff" stroke="#263238" stroke-linecap="round" stroke-linejoin="round" stroke-miterlimit="10" d="M286.282 113.92s-7.936 6.648-11.489 9.615-8.234 4.573-7.403 6.232 6.89 11.966 8.373 13.447c1.484 1.481 19.607-12.054 20.673-12.886s-6.477-14.396-10.154-16.408"/><path fill="#fff" stroke="#263238" stroke-linecap="round" stroke-linejoin="round" stroke-miterlimit="10" d="M273.17 130.798a.843.843 0 1 1-1.601-.53.843.843 0 0 1 1.601.53m5.934 5.922a1.031 1.031 0 1 1-1.958-.65 1.031 1.031 0 0 1 1.958.65m.525-8.122a.657.657 0 1 1-1.246-.415.657.657 0 0 1 1.246.415m4.798-3.739a.844.844 0 1 1-1.601-.534.844.844 0 0 1 1.601.534m7.414 4.437a.843.843 0 1 1-1.6-.532.843.843 0 0 1 1.6.532m-5.183 3.711a.75.75 0 1 1-1.424-.475.75.75 0 0 1 1.424.475m-6.174-8.767a.75.75 0 1 1-1.424-.47.75.75 0 0 1 1.424.47m7.673-3.476a.844.844 0 1 1-1.602-.532.844.844 0 0 1 1.602.532m-5.792 16.248a.656.656 0 1 1-1.245-.413.656.656 0 0 1 1.245.413"/><path fill="#fff" stroke="#263238" stroke-linecap="round" stroke-linejoin="round" stroke-miterlimit="10" d="M289.669 128.322s-10.156 2.008-14.699 2.899c-4.543.892-9.419.047-9.488 1.901-.07 1.854.281 13.805.869 15.817.588 2.011 22.989-1.132 24.323-1.347s1.251-15.737-1.005-19.27"/><path fill="#fff" stroke="#263238" stroke-linecap="round" stroke-linejoin="round" stroke-miterlimit="10" d="M270.053 136.807a.844.844 0 1 1-1.148-1.237.844.844 0 0 1 1.148 1.237m2.353 8.047a1.032 1.032 0 1 1-1.403-1.513 1.032 1.032 0 0 1 1.403 1.513m4.368-6.867a.656.656 0 1 1-.892-.962.656.656 0 0 1 .892.962m6.004-.97a.844.844 0 1 1-1.148-1.237.844.844 0 0 1 1.148 1.237m4.365 7.459a.844.844 0 1 1-1.147-1.238.844.844 0 0 1 1.147 1.238m-6.329.758a.75.75 0 1 1-1.02-1.101.75.75 0 0 1 1.02 1.101m-1.194-10.656a.75.75 0 1 1-1.02-1.1.75.75 0 0 1 1.02 1.1m8.399.645a.844.844 0 1 1-1.148-1.237.844.844 0 0 1 1.148 1.237m-12.896 11.456a.656.656 0 1 1-.894-.96.656.656 0 0 1 .894.96m-27.127-.284 13.059 6.027a18.63 18.63 0 0 0 4.311-11.944c0-10.331-8.375-18.707-18.706-18.707s-18.707 8.376-18.707 18.707 8.376 18.706 18.707 18.706c1.219 0 2.41-.121 3.565-.343z"/><path fill="#fff" stroke="#263238" stroke-linecap="round" stroke-linejoin="round" stroke-miterlimit="10" d="m247.996 144.917 13.059 6.027A18.63 18.63 0 0 0 265.366 139c0-10.331-8.375-18.707-18.706-18.707s-18.707 8.376-18.707 18.707 8.376 18.706 18.707 18.706c1.219 0 2.41-.12 3.565-.343z"/><path fill="#fff" stroke="#263238" stroke-linecap="round" stroke-linejoin="round" stroke-miterlimit="10" d="M231.864 140.984a1.523 1.523 0 1 0 .003-3.045 1.523 1.523 0 0 0-.003 3.045m5.151 4.498a.87.87 0 1 1-1.742-.002.87.87 0 0 1 1.742.002m3.554-5.512a.799.799 0 1 0-.002-1.598.799.799 0 0 0 .002 1.598m2.538-9.358a.797.797 0 1 1-1.595.001.797.797 0 0 1 1.595-.001m14.507 10.518a.725.725 0 1 1-1.45 0 .725.725 0 0 1 1.45 0m1.015-9.067a.653.653 0 1 1-1.305 0 .653.653 0 0 1 1.305 0m-8.849 3.409a.726.726 0 1 0-.001-1.451.726.726 0 0 0 .001 1.451"/><path fill="#98E4FF" stroke="#263238" stroke-linecap="round" stroke-linejoin="round" stroke-miterlimit="10" d="M266.282 144.415s-2.293 1.079-2.919 3.25c-.626 2.17.55 4.924 1.993 6.661 1.443 1.738 3.26 4.117 4.693 4.658 3.695 1.392 5.181-4.092 4.478-6.607-.286-1.024 1.618-2.107.297-5.55-1.319-3.443-6.532-4.272-8.542-2.412"/><path fill="#263238" d="M267.544 143.519s-.737-.769-1.886-.471c-1.148.298-2.361.84-2.361.84s1.025.766 1.645.694c.619-.072 2.602-1.063 2.602-1.063"/><path fill="#263238" d="M267.544 143.519s-.01-1.151.227-1.95c.236-.8.781-1.778.799-2.243s1.171-.187.873 1.143-1.899 3.05-1.899 3.05m-.999 7.451a.37.37 0 0 1-.583.049c-.468-.507-1.183-1.729-1.214-1.78a.37.37 0 1 1 .64-.373c.006.012.704 1.203 1.118 1.651.118.127.13.314.039.453m2.713-1.085a.37.37 0 0 1-.671-.118l-.528-2.254a.37.37 0 0 1 .721-.169l.529 2.253a.38.38 0 0 1-.051.288m2.361-.841a.37.37 0 0 1-.668-.301l.558-2.019a.37.37 0 0 1 .714.198l-.558 2.018a.4.4 0 0 1-.046.104m-3.448 5.564a.37.37 0 0 1-.513.107l-1.135-.742a.37.37 0 1 1 .405-.62l1.136.743a.37.37 0 0 1 .107.512m1.425-1.451a.37.37 0 0 1-.645-.045l-.518-1.102a.37.37 0 0 1 .67-.316l.518 1.103a.37.37 0 0 1-.025.36m2.338-.95a.371.371 0 0 1-.679-.233l.08-.997a.37.37 0 1 1 .738.06l-.08.997a.4.4 0 0 1-.059.173m-1.442 4.683a.372.372 0 0 1-.601.027l-.783-.989a.371.371 0 0 1 .581-.46l.783.989a.37.37 0 0 1 .02.433m1.675-.811a.37.37 0 0 1-.68-.188l-.056-1.372a.37.37 0 0 1 .74-.03l.056 1.371a.37.37 0 0 1-.06.219m1.227-4.062a.37.37 0 0 1-.657-.333c.374-.992.776-2.136.799-2.332a.37.37 0 0 1 .735.086c-.042.371-.654 2.013-.841 2.508a.4.4 0 0 1-.036.071m-6.964-4.078a.37.37 0 0 1-.672-.127l-.323-1.546a.37.37 0 1 1 .725-.151l.323 1.546c.02.1-.002.199-.053.278m4.062-1.253a.37.37 0 0 1-.64-.034 435 435 0 0 0-.967-1.871l.657-.341s.676 1.301.969 1.874a.37.37 0 0 1-.019.372"/><path fill="#98E4FF" stroke="#263238" stroke-linecap="round" stroke-linejoin="round" stroke-miterlimit="10" d="M283.569 147.192s-2.158-1.329-4.318-.665c-2.159.665-3.819 3.156-4.484 5.315-.664 2.158-1.661 4.982-1.328 6.477.857 3.854 6.26 2.096 7.979.131.7-.8 2.649.2 4.808-2.789s0-7.804-2.657-8.469"/><path fill="#263238" d="M285.01 147.757s.24-1.038-.638-1.836-1.995-1.516-1.995-1.516-.08 1.277.319 1.756c.399.478 2.314 1.596 2.314 1.596"/><path fill="#263238" d="M285.01 147.757s.958-.638 1.755-.878c.798-.24 1.916-.319 2.315-.558s.798.877-.478 1.357c-1.278.478-3.592.079-3.592.079M278.227 151a.37.37 0 0 1-.36-.46c.168-.67.8-1.936.826-1.99a.37.37 0 0 1 .663.331c-.007.012-.622 1.248-.77 1.839a.37.37 0 0 1-.359.28m2.393 1.676a.369.369 0 0 1-.267-.626l1.596-1.676a.371.371 0 0 1 .536.511l-1.596 1.675a.37.37 0 0 1-.269.116m1.996 1.516a.37.37 0 0 1-.353-.257.37.37 0 0 1 .241-.466l1.994-.638a.37.37 0 1 1 .225.705l-1.994.638a.4.4 0 0 1-.113.018m-6.544.16a.37.37 0 0 1-.37-.37v-1.357a.37.37 0 1 1 .74 0v1.357a.37.37 0 0 1-.37.37m1.995.399a.37.37 0 0 1-.316-.565l.639-1.037a.37.37 0 1 1 .631.388l-.638 1.038a.37.37 0 0 1-.316.176m2.075 1.436a.37.37 0 0 1-.177-.695l.878-.479a.37.37 0 1 1 .354.651l-.877.478a.4.4 0 0 1-.178.045m-4.708 1.357a.37.37 0 0 1-.352-.487l.399-1.197a.371.371 0 0 1 .704.234l-.4 1.197a.37.37 0 0 1-.351.253m1.596.958a.371.371 0 0 1-.216-.672l1.118-.798a.37.37 0 0 1 .431.603l-1.118.798a.37.37 0 0 1-.215.069m4.07-1.197a.371.371 0 0 1-.08-.732c1.035-.23 2.211-.52 2.389-.608a.37.37 0 0 1 .331.662c-.334.167-2.043.554-2.559.669a.4.4 0 0 1-.081.009m-.399-8.061a.371.371 0 0 1-.262-.632l1.117-1.117a.37.37 0 1 1 .524.523l-1.117 1.117a.37.37 0 0 1-.262.109m3.271 2.714a.37.37 0 0 1-.322-.554c.319-.558 1.037-1.833 1.037-1.833l.645.363s-.719 1.278-1.038 1.837a.37.37 0 0 1-.322.187"/><path fill="#98E4FF" stroke="#263238" stroke-linecap="round" stroke-linejoin="round" stroke-miterlimit="10" d="M266.796 161.153s.981-2.337-.007-4.369-3.705-3.289-5.941-3.614-5.178-.875-6.605-.317c-3.677 1.439-1.108 6.508 1.097 7.905.899.569.209 2.648 3.495 4.322s7.713-1.199 7.961-3.927"/><path fill="#263238" d="M266.459 162.663s1.062.078 1.715-.912c.654-.99 1.192-2.204 1.192-2.204s-1.274.117-1.686.585-1.221 2.531-1.221 2.531"/><path fill="#263238" d="M266.459 162.663s.778.849 1.137 1.6c.36.752.61 1.843.908 2.201.297.358-.746.924-1.415-.264s-.63-3.537-.63-3.537m-4.247-6.204a.37.37 0 0 1 .4-.425c.687.063 2.036.492 2.093.51a.37.37 0 0 1-.225.705c-.013-.004-1.329-.423-1.936-.477a.37.37 0 0 1-.332-.313m-1.288 2.623a.37.37 0 0 1 .577-.361l1.901 1.319a.371.371 0 0 1-.423.609l-1.901-1.319a.37.37 0 0 1-.154-.248m-1.192 2.205a.37.37 0 0 1 .697-.223l.937 1.873a.37.37 0 0 1-.662.331l-.937-1.873a.4.4 0 0 1-.035-.108m-1.163-6.442a.37.37 0 0 1 .309-.422l1.341-.209a.371.371 0 0 1 .113.732l-1.34.209a.37.37 0 0 1-.423-.31m-.088 2.033a.371.371 0 0 1 .509-.399l1.124.472a.37.37 0 0 1-.288.682l-1.123-.471a.37.37 0 0 1-.222-.284m-1.101 2.27a.37.37 0 0 1 .661-.281l.607.794a.371.371 0 1 1-.588.45l-.607-.794a.4.4 0 0 1-.073-.169m-2.064-4.443a.37.37 0 0 1 .428-.422l1.244.211a.37.37 0 0 1 .304.427.37.37 0 0 1-.427.303l-1.245-.211a.37.37 0 0 1-.304-.308m-.7 1.724a.37.37 0 0 1 .63-.316l.96.981a.37.37 0 1 1-.529.519l-.96-.982a.37.37 0 0 1-.101-.202m1.807 3.838a.37.37 0 0 1 .711-.192c.387.987.854 2.105.968 2.266a.37.37 0 0 1-.603.429c-.217-.304-.862-1.934-1.055-2.426zm7.904-1.633a.37.37 0 0 1 .584-.356l1.275.932a.37.37 0 0 1-.436.597l-1.275-.932a.36.36 0 0 1-.148-.241m-2.178 3.65a.37.37 0 0 1 .497-.404c.601.23 1.971.743 1.971.743l-.26.693s-1.373-.514-1.975-.743a.37.37 0 0 1-.233-.289"/><path fill="#fff" stroke="#263238" stroke-linecap="round" stroke-linejoin="round" stroke-miterlimit="10" d="M203.901 91.053c21.319 0 38.601-17.282 38.601-38.601 0-21.32-17.282-38.601-38.601-38.601s-38.602 17.282-38.602 38.6c0 21.32 17.283 38.602 38.602 38.602"/><path fill="#98E4FF" stroke="#263238" stroke-linecap="round" stroke-linejoin="round" stroke-miterlimit="10" d="M188.8 40.752s-1.813-.544-5.346-2.628-8.88-1.993-9.605-.18c-.725 1.811.363 3.352-.362 4.258-.726.906-2.356 1.087-2.175 1.993s1.903 1.359 1.631 1.903c-.272.543-1.359 1.63-.997 2.084.363.452 1.541 1.268 1.541 1.268s1.177-.815-.997 1.269-1.541 3.262-1.541 3.262.725.997.453 1.812.815 1.359.815 1.359 1.087.997.997 2.175c-.091 1.178.906 2.718.906 2.718s4.077 1.269 3.987 1.902c-.091.635-.906 1.813-.725 2.447s1.993.453 2.537.453 1.087.543.997 2.265c-.091 1.721 1.087 2.084 1.087 2.084s3.352 1.177 3.443 1.54c.09.363-1.632 1.087 1.087.997s4.077.272 2.899-.725-2.447-2.719-3.624-2.9c-1.178-.18-3.172-1.812-1.631-2.084 1.54-.271 3.081.453 3.081.453l.815 1.087 2.537.635s-2.356 1.359-.363 1.993 2.537-.181 2.628.543c.091.725.452 2.265.452 2.265s-.362-.452.997 0c1.359.453 1.087-9.695.272-10.691s-2.99-2.356-2.99-2.356l.906-2.9-.543-2.083c.002 0-8.515-2.536-3.169-16.218"/><path stroke="#263238" stroke-linecap="round" stroke-linejoin="round" stroke-miterlimit="10" d="M174.483 49.541s2.447-.453 5.165-.815c2.719-.363 1.722-.906 2.99-1.36 1.269-.452 1.813 0 1.813 0m-10.783-2.084c.272 0 3.986.272 6.524.544s3.805-.816 3.805-.816h1.178m-10.329 14.498s4.893-2.175 5.799-2.175c.905 0 1.54.815 2.174-.363.635-1.178.181-1.903.726-2.356.543-.453 0-.362.543-.453m-3.081 11.599c1.722-.453.634-2.99 2.537-3.172 1.902-.18 2.899-.09 4.621-.634 1.721-.543 2.446-.997 2.536-1.269"/><path fill="#98E4FF" stroke="#263238" stroke-linecap="round" stroke-linejoin="round" stroke-miterlimit="10" d="M198.766 33.323s-.543-2.356.272-3.625 4.077-.815 5.165-.543c1.087.271 2.446 1.177 2.446-.726s-.453-2.808-1.178-3.261.272-1.45-.815-1.903-.815-.181-1.54-.453-1.087-1.722-2.175-1.722-1.087.725-1.722.363c-.634-.363-1.268-1.269-1.993-1.087-.725.18-1.721 1.178-1.721 1.178s-.635-.454-1.359-.272c-.725.181-.815.815-1.721.815s-2.175-1.268-2.719-.906c-.543.363-1.359 1.087-1.449 1.45-.091.362-1.359-.181-1.903.543-.544.725-.816 1.54-1.178 1.722-.363.18-1.269.362-1.269.634s.181 1.087 0 1.359-.725.634-.725.634.272 1.178-.091 1.54c-.362.363-1.993 1.179-1.993 1.179s.906.906.453 1.268c-.453.363-1.087.272-1.269.635-.181.362.272 1.45.272 1.45s1.721.905 2.627 1.449 1.632 1.178 4.349-.453c2.719-1.631 5.437-1.721 6.433-1.178.997.544 2.447 2.628 2.447 2.628s1.541.634 2.356-2.718"/><path stroke="#263238" stroke-linecap="round" stroke-linejoin="round" stroke-miterlimit="10" d="M200.307 22.178s-1.088.362-1.088 1.72c0 1.36-.815 3.897-.815 3.897l-.906 1.54m6.614-4.711s-1.269.725-2.175 1.721-2.175 1.994-2.175 1.994m-9.604-5.527s2.265 2.356 2.447 3.805m-7.702.635s1.359 1.268 2.265 1.54 1.993.634 1.993.634 2.175.906 3.081 1.269"/><path fill="#98E4FF" stroke="#263238" stroke-linecap="round" stroke-linejoin="round" stroke-miterlimit="10" d="M223.543 57.87s2.312.709 3.002 2.05-1.335 3.938-2.114 4.743-2.245 1.528-.597 2.48c1.647.953 2.658 1.014 3.413.614.755-.401 1.119.96 2.056.246.936-.715.564-.615 1.163-1.107.598-.492 2.034-.08 2.578-1.02.544-.942-.083-1.305.548-1.672.631-.368 1.733-.463 1.939-1.181.206-.719-.157-2.08-.157-2.08s.709-.323.915-1.041-.297-1.114.156-1.899c.454-.784 2.187-1.247 2.145-1.9s-.26-1.72-.529-1.98.837-1.086.482-1.92c-.356-.833-.926-1.476-.901-1.882.024-.404.321-1.28.085-1.415-.235-.136-1.032-.387-1.176-.68-.145-.293-.186-.945-.186-.945s-1.156-.354-1.288-.85c-.132-.494-.022-2.314-.022-2.314s-1.238.33-1.325-.243c-.087-.574.309-1.078.086-1.416s-1.391-.49-1.391-.49-1.646 1.037-2.57 1.549c-.925.513-1.837.822-1.785 3.992s-1.231 5.568-2.201 6.159c-.969.59-3.499.802-3.499.802s-1.321 1.016 1.173 3.4"/><path stroke="#263238" stroke-linecap="round" stroke-linejoin="round" stroke-miterlimit="10" d="M232.42 64.782s.231-1.123-.946-1.803c-1.176-.68-2.965-2.656-2.965-2.656l-.879-1.555m.768 8.084s.008-1.46-.402-2.744c-.41-1.283-.637-2.88-.637-2.88m9.592-5.548s-3.173.781-4.519.213m3.306-6.985s-1.779.542-2.467 1.19c-.689.649-1.547 1.409-1.547 1.409s-1.873 1.428-2.64 2.031"/><path fill="#fff" stroke="#263238" stroke-linecap="round" stroke-linejoin="round" stroke-miterlimit="10" d="M183.048 47.778a8.016 8.016 0 1 0 0-16.033 8.016 8.016 0 0 0 0 16.033"/><path fill="#fff" stroke="#263238" stroke-linecap="round" stroke-linejoin="round" stroke-miterlimit="10" d="M183.048 46.908a8.016 8.016 0 1 0 0-16.032 8.016 8.016 0 0 0 0 16.032"/><path fill="#fff" stroke="#263238" stroke-linecap="round" stroke-linejoin="round" stroke-miterlimit="10" stroke-width=".75" d="M185.808 45.499a7.16 7.16 0 1 0-5.518-13.215 7.16 7.16 0 0 0 5.518 13.215"/><path stroke="#263238" stroke-linecap="round" stroke-linejoin="round" stroke-miterlimit="10" stroke-width=".75" d="M183.827 38.163s.924 0 .924-1.034-1.387-1.81-3.006-1.035c-1.62.776-2.699 2.241-2.313 2.414s2.081-.086 1.927.345-2.004.344-2.467.344c-.462 0-1.156.43-.771 1.379.386.948.232-.258 1.542-.258s2.313.086 2.004.344c-.308.258-1.85.776-.771.948s4.78.087 4.472-.603c-.309-.69-1.928-.948-1.157-1.207s1.542-.69 2.081-.603c.54.086 1.311-.863.617-1.121-.693-.258-1.926.346-3.082.087m-.262-3.793s-1.207-2.585-1.034-1.12c.172 1.465.776 2.5 1.034 1.12m-2.983 1.102s-1.969-2.066-1.338-.732 1.533 2.12 1.338.731m5.914.001s1.969-2.066 1.338-.732-1.533 2.12-1.338.731m.949 4.33s2.845-.222 1.484.35c-1.361.57-2.558.554-1.484-.35m-1.125 2.073s2.59 1.197 1.125 1.03c-1.466-.167-2.504-.766-1.125-1.03m-1.889 2.418s-.827-2.73-.865-1.256c-.037 1.475.414 2.585.865 1.256m-3.796-1.302s-1.498 2.43-.369 1.48 1.663-2.021.369-1.48"/><path fill="#fff" stroke="#263238" stroke-linecap="round" stroke-linejoin="round" stroke-miterlimit="10" d="M195.187 39.801a7.225 7.225 0 1 0 0-14.45 7.225 7.225 0 0 0 0 14.45"/><path fill="#fff" stroke="#263238" stroke-linecap="round" stroke-linejoin="round" stroke-miterlimit="10" d="M195.187 39.018a7.225 7.225 0 1 0 0-14.45 7.225 7.225 0 0 0 0 14.45"/><path fill="#fff" stroke="#263238" stroke-linecap="round" stroke-linejoin="round" stroke-miterlimit="10" stroke-width=".75" d="M201.448 33.318a6.453 6.453 0 1 0-12.539-3.054 6.453 6.453 0 0 0 12.539 3.054"/><path stroke="#263238" stroke-linecap="round" stroke-linejoin="round" stroke-miterlimit="10" stroke-width=".75" d="M195.889 31.136s.833 0 .833-.932-1.251-1.631-2.709-.932c-1.459.7-2.432 2.02-2.084 2.175s1.876-.078 1.737.311c-.14.389-1.807.31-2.224.31-.416 0-1.042.389-.694 1.244.347.854.208-.233 1.389-.233s2.084.077 1.807.31c-.278.234-1.668.7-.695.855.972.155 4.307.078 4.029-.543-.278-.622-1.736-.855-1.042-1.088.695-.233 1.39-.622 1.876-.544.487.078 1.181-.776.556-1.01-.626-.233-1.737.31-2.779.077m-.235-3.418s-1.088-2.33-.932-1.01c.155 1.322.698 2.253.932 1.01m-2.689.992s-1.775-1.86-1.206-.659 1.382 1.912 1.206.66m5.33-.001s1.775-1.86 1.205-.659c-.568 1.202-1.381 1.912-1.205.66m.854 3.901s2.564-.2 1.338.314c-1.226.516-2.305.5-1.338-.314m-1.013 1.868s2.334 1.08 1.013.928c-1.321-.15-2.255-.69-1.013-.928m-1.702 2.18s-.746-2.462-.779-1.132.371 2.329.779 1.132m-3.421-1.174s-1.35 2.19-.332 1.334 1.498-1.822.332-1.334"/><path fill="#fff" stroke="#263238" stroke-linecap="round" stroke-linejoin="round" stroke-miterlimit="10" d="M229.987 57.974a7.224 7.224 0 1 1-4.857 13.608 7.224 7.224 0 0 1 4.857-13.608"/><path fill="#fff" stroke="#263238" stroke-linecap="round" stroke-linejoin="round" stroke-miterlimit="10" d="M229.249 57.712a7.224 7.224 0 1 1-9.232 4.376 7.224 7.224 0 0 1 9.232-4.376"/><path fill="#fff" stroke="#263238" stroke-linecap="round" stroke-linejoin="round" stroke-miterlimit="10" stroke-width=".75" d="M228.99 58.438a6.453 6.453 0 1 1-4.337 12.155 6.453 6.453 0 0 1 4.337-12.155"/><path stroke="#263238" stroke-linecap="round" stroke-linejoin="round" stroke-miterlimit="10" stroke-width=".75" d="M226.438 63.634s.28-.785-.598-1.099c-.877-.313-1.956.63-1.788 2.239s1.085 2.968 1.348 2.693.557-1.793.876-1.531c.319.261-.314 1.806-.454 2.198-.14.393.015 1.112.937 1.072.921-.04-.15-.275.247-1.388s.774-1.937.9-1.597.098 1.805.571.942c.473-.864 1.52-4.031.842-3.978-.679.053-1.389 1.348-1.375.616s-.118-1.517.119-1.95c.236-.431-.335-1.373-.765-.862-.428.512-.29 1.742-.86 2.645m-3.298-.927s-2.56.24-1.264.538 2.356.099 1.264-.538m.031 2.866s-2.349 1.046-1.026.914 2.265-.66 1.026-.914m1.791-5.02s-1.157-2.297-.216-1.357 1.337 1.943.216 1.357m3.962.506s.673-2.482.746-1.154-.304 2.339-.746 1.154m1.419 1.582s1.8-1.836 1.215-.642c-.586 1.194-1.409 1.892-1.215.642m1.481 2.335s-2.569-.124-1.328.354 2.318.432 1.328-.354m-2.255 2.829s1.608 2.007 1.144.76c-.463-1.246-1.212-2.023-1.144-.76"/><path fill="#fff" stroke="#263238" stroke-linecap="round" stroke-linejoin="round" stroke-miterlimit="10" d="M200.399 38.233s-3.523-1.644-5.52-1.644-4.698 1.175-6.577 5.403-2.936 8.339-1.057 11.98 5.402 5.285 7.634 4.814c2.231-.47 4.463-4.227 6.342-10.687 1.88-6.46.822-8.926-.822-9.866"/><path fill="#fff" stroke="#263238" stroke-linecap="round" stroke-linejoin="round" stroke-miterlimit="10" d="M188.302 41.991c-1.879 4.228-2.936 8.34-1.057 11.98 1.432 2.775 3.818 4.386 5.86 4.79a3.8 3.8 0 0 0-.81-.444c-1.174-.47-2.936-2.232-3.523-6.812-.587-4.581 1.879-8.692 4.581-11.863 2.701-3.171 7.047-1.41 7.047-1.41s-3.523-1.644-5.52-1.644c-1.998 0-4.699 1.176-6.578 5.403"/><path fill="#98E4FF" d="M195.717 47.403s-1.129-7.735-.725-7.977c.403-.241 2.175-1.61 2.336-.322s-1.611 8.299-1.611 8.299m-.645.402s-.161-8.057-1.209-7.17c-1.047.886-2.739 2.498-2.175 2.74.564.24 3.384 4.43 3.384 4.43m0 0s-3.465-3.706-3.948-3.545-.886 2.015-.886 2.9c0 .887 4.834.645 4.834.645m0 .001s-4.593.483-5.076 1.208c-.484.725-.645 3.304-.241 3.626.402.323 5.317-4.834 5.317-4.834"/><path fill="#98E4FF" d="M195.072 47.806s-4.754 5.076-4.673 5.8c.08.726 1.208 3.224 2.417 2.58s2.256-8.38 2.256-8.38m3.223-9.186-2.578 8.782s3.948-4.19 4.593-6.365c.644-2.175-2.015-2.417-2.015-2.417"/><path fill="#98E4FF" d="M195.395 48.37s-2.337 7.976-1.612 8.54 1.934.564 2.821-.644c.886-1.209-1.209-7.896-1.209-7.896m.322-.967s1.692 7.251 2.014 7.654c.322.404 1.692-2.255 1.45-3.706-.241-1.45-3.464-3.948-3.464-3.948"/><path fill="#98E4FF" d="M199.665 50.223s1.37-3.062 1.45-4.35c.081-1.29-5.398 1.53-5.398 1.53s2.498.886 3.948 2.82m-2.579-3.868s3.868-5.479 4.029-4.593.484 2.337.242 2.74-4.271 1.853-4.271 1.853"/><path fill="#fff" stroke="#263238" stroke-linecap="round" stroke-linejoin="round" stroke-miterlimit="10" d="M207.087 32.432s-3.523-1.644-5.52-1.644-4.698 1.174-6.577 5.402c-1.88 4.228-2.936 8.34-1.057 11.98s5.402 5.285 7.634 4.815c2.231-.47 4.463-4.228 6.342-10.688 1.879-6.459.822-8.925-.822-9.865"/><path fill="#fff" stroke="#263238" stroke-linecap="round" stroke-linejoin="round" stroke-miterlimit="10" d="M194.99 36.19c-1.88 4.228-2.936 8.34-1.057 11.98 1.432 2.775 3.818 4.386 5.86 4.79a3.8 3.8 0 0 0-.81-.444c-1.175-.47-2.936-2.232-3.523-6.813s1.879-8.691 4.581-11.862c2.701-3.171 7.047-1.41 7.047-1.41s-3.523-1.644-5.521-1.644-4.698 1.175-6.577 5.403"/><path fill="#98E4FF" d="M202.405 41.601s-1.129-7.735-.726-7.976c.404-.242 2.176-1.612 2.337-.322.161 1.289-1.611 8.298-1.611 8.298m-.645.403s-.161-8.057-1.209-7.17c-1.047.885-2.739 2.497-2.175 2.739.564.241 3.384 4.431 3.384 4.431m0 0s-3.465-3.706-3.948-3.545-.886 2.014-.886 2.9 4.834.645 4.834.645m0 0s-4.593.484-5.076 1.21c-.484.724-.645 3.303-.241 3.625.402.322 5.317-4.835 5.317-4.835m0 0s-4.754 5.076-4.673 5.801 1.208 3.224 2.416 2.579c1.209-.645 2.257-8.38 2.257-8.38"/><path fill="#98E4FF" d="m204.983 32.819-2.579 8.782s3.948-4.19 4.593-6.365c.645-2.176-2.014-2.417-2.014-2.417"/><path fill="#A6A6A6" stroke="#263238" stroke-linecap="round" stroke-linejoin="round" stroke-miterlimit="10" d="M220.241 31.492s-.822 1.997-.352 3.994c.47 1.996.705 2.348.705 4.228s-.353 3.054-.94 4.11c-.587 1.058-.822 1.88-1.996 3.407-1.175 1.527.822.822-1.997 2.584s-3.641 2.819-3.641 3.289-1.644 2.231 2.114 2.114 8.574-6.342 9.396-9.396 1.645-9.631.47-11.863-2.467-3.29-3.759-2.467"/><path fill="#D1D1D1" stroke="#263238" stroke-linecap="round" stroke-linejoin="round" stroke-miterlimit="10" d="M221.181 26.676s.705-2.349-1.292-3.758-5.872.117-8.339 3.406c-2.466 3.288-2.231 4.698-2.819 5.873-.587 1.174-9.748 15.62-12.214 21.493s-4.816 9.396-4.111 14.799c.704 5.402 1.175 10.218 5.52 13.154 4.346 2.936 3.876 2.35 4.346 2.936.47.587.94.47 3.406-.587 2.467-1.058 5.52-.47 8.221-2.232s5.638-3.875 6.93-6.342 4.228-7.517 6.225-14.798c1.996-7.282 3.054-14.094 3.171-16.326.117-2.231 1.879-7.634 1.996-10.1.117-2.467.47-2.936-2.114-5.756-2.584-2.818-4.933-1.762-5.99-.704-1.057 1.057-3.875 1.88-3.875 3.758 0 1.88 2.114 3.641 2.466 7.048s-.235 6.224-.94 7.751c-.704 1.527-2.583 4.228-3.875 5.52-1.292 1.293-4.346 2.35-4.698 1.293s-1.292-5.52-1.292-7.282.235-3.994 1.879-7.047c1.644-3.054 3.171-5.05 4.346-7.047 1.174-1.998 1.996-1.763 3.053-5.052"/><path fill="#263238" stroke="#263238" stroke-linecap="round" stroke-linejoin="round" stroke-miterlimit="10" d="M207.087 81.878c-2.936 0-4.698.823-4.698.823s-2.349-1.292-3.641-2.467-5.05-6.107-4.698-13.271 5.638-17.736 6.929-19.967c1.292-2.232 6.578-9.983 7.987-12.215 1.41-2.231 1.527-3.17 1.997-5.755.301-1.659 2.292-4.037 3.682-5.532a11.1 11.1 0 0 0-3.095 2.83c-2.466 3.29-2.231 4.698-2.819 5.873-.587 1.174-9.748 15.62-12.214 21.493s-4.816 9.396-4.111 14.799c.704 5.402 1.175 10.218 5.52 13.154 4.346 2.937 3.876 2.35 4.346 2.937.469.587.94.47 3.406-.588s5.52-.47 8.221-2.231c2.702-1.762 5.638-3.876 6.93-6.342-.94.587-5.168 3.17-7.282 4.58-2.115 1.41-3.524 1.88-6.46 1.88"/><path stroke="#263238" stroke-linecap="round" stroke-linejoin="round" stroke-miterlimit="10" d="M204.187 66.107c1.411.34 2.43.267 2.43.267m-9.044-8.456s-.117 3.994 2.819 6.342a9.5 9.5 0 0 0 2.382 1.393m-6.257.722s3.053 1.056 5.402 1.761 3.523.353 3.523.353m-3.974 3.376c1.1.053 2.209-.019 3.153-.322m-8.575-.705s1.908.636 4.144.915m7.719 1.317s5.52 3.406 8.926 2.936m-7.047-6.107s4.581 2.349 9.161.704c4.581-1.644 5.52-4.816 5.52-4.816m-1.764-2.213c.737-.897.943-1.545.943-1.545m-13.508 4.933s4.228 1.644 8.457-.352a13.7 13.7 0 0 0 2.57-1.556M210.14 47.23s-5.754.353-9.043 4.463m5.843-6.655c1.176-.434 2.496-.817 3.788-.979m-7.752 2.819s.988-.581 2.445-1.224m2.018-5.588s3.759-1.057 5.051-1.175m2.665-6.176a7 7 0 0 1 1.093-.048m-6.343 1.526s1.413-.581 3.052-1.028m12.452 1.851s3.523 1.762 4.346 4.228m-4.463 1.292s4.11 2.35 4.345 5.755m-6.107 3.523s3.289 2.584 2.584 8.104M211.315 55.1s-1.41.704-1.175 2.583.588 1.996.235 2.584c-.352.587-2.818 7.517-3.288 9.63q-.705 3.172-1.762 5.286c-.705 1.41-1.175 3.406-1.175 3.994m10.454-22.081s-.117 2.467-1.057 2.702c-.939.235-1.996.822-1.996.822l-.823 3.172m-1.644-10.924s-3.994-.235-6.695 4.228"/><path fill="#fff" stroke="#263238" stroke-linecap="round" stroke-linejoin="round" stroke-miterlimit="10" d="M109.862 91.053c21.319 0 38.601-17.282 38.601-38.601 0-21.32-17.282-38.601-38.601-38.601-21.32 0-38.601 17.282-38.601 38.6 0 21.32 17.282 38.602 38.601 38.602"/><path fill="#98E4FF" stroke="#263238" stroke-linecap="round" stroke-linejoin="round" stroke-miterlimit="10" d="M121.88 17.539s-1.089-2.49-4.045-1.09-2.801 3.58-2.801 3.58-4.201 2.8-3.89 4.667 2.178 5.135 2.178 5.135-2.178 3.578-1.867 5.29c.311 1.711 1.245 5.912 1.4 6.378.156.467-3.734 2.023-3.112 4.046s2.178 4.512 2.801 4.668c.623.155 2.178.778 2.178.778s.934 4.823 2.023 6.378c1.089 1.556 2.334 2.178 2.334 2.178s2.489 4.668 9.802 6.068 10.891-7.934 10.891-7.934 2.178-2.801 2.49-4.201-.311-6.535-.156-7.002c.156-.467 1.556-2.8 1.245-6.068s-2.178-8.401-3.734-9.646-3.112-1.4-3.112-1.4-4.2-5.913-6.067-6.846c-1.867-.934-3.267-.934-3.267-.934z"/><path stroke="#263238" stroke-linecap="round" stroke-linejoin="round" stroke-miterlimit="10" d="M123.938 22.913c.519-.53.983-1.079 1.364-1.64m-10.891 7.935s4.479-2.02 7.961-4.872m-7.65 16.074s16.492-6.845 20.071-9.957m-2 15.785c2.732-.395 5.397-.587 7.602-.383m-23.494 4.202s6.961-2.297 14.059-3.527m.181 11.69a569 569 0 0 0 8.631-.54m-18.981 1.09s3.588-.178 7.905-.414"/><path fill="#fff" stroke="#263238" stroke-linecap="round" stroke-linejoin="round" stroke-miterlimit="10" d="M94.059 46.215c7.509 0 13.597-6.087 13.597-13.597s-6.088-13.597-13.597-13.597c-7.51 0-13.598 6.087-13.598 13.597S86.55 46.215 94.06 46.215"/><path fill="#fff" stroke="#263238" stroke-linecap="round" stroke-linejoin="round" stroke-miterlimit="10" d="M107.922 33.592c1.826-7.66-2.903-15.35-10.563-17.176S82.01 19.32 80.183 26.98s2.903 15.35 10.563 17.176 15.35-2.903 17.176-10.563"/><path fill="#D1D1D1" stroke="#263238" stroke-linecap="round" stroke-linejoin="round" stroke-miterlimit="10" d="M94.059 42.7c6.857 0 12.415-5.558 12.415-12.415s-5.558-12.416-12.415-12.416-12.416 5.559-12.416 12.416S87.202 42.7 94.06 42.7"/><path fill="#fff" stroke="#263238" stroke-linecap="round" stroke-linejoin="round" stroke-miterlimit="10" d="m102.506 42.671-1.958 1.585s5.224 4.598 6.624 4.598c1.401 0 2.8-1.4 2.683-2.333s-4.899-5.95-4.899-5.95z"/><path stroke="#263238" stroke-linecap="round" stroke-linejoin="round" stroke-miterlimit="10" d="m102.506 42.671 4.316 4.434"/><path fill="#263238" d="M89.267 24.825a.875.875 0 1 0 0-1.75.875.875 0 0 0 0 1.75m4.373-1.517a.467.467 0 1 0 0-.933.467.467 0 0 0 0 .933M93 29.257a.525.525 0 1 0 0-1.05.525.525 0 0 0 0 1.05m5.19-1.108a.642.642 0 1 1-1.283 0 .642.642 0 0 1 1.283 0m-.7-1.459a.7.7 0 1 0 0-1.4.7.7 0 0 0 0 1.4m-1.691-4.431a.875.875 0 1 0 0-1.75.875.875 0 0 0 0 1.75m4.957 2.916a.7.7 0 1 0 0-1.4.7.7 0 0 0 0 1.4"/><path fill="#fff" stroke="#263238" stroke-linecap="round" stroke-linejoin="round" stroke-miterlimit="10" d="M101.34 29.49a.35.35 0 1 0 0-.698.35.35 0 0 0 0 .698"/><path fill="#263238" d="M97.257 32.057a.7.7 0 1 0 0-1.4.7.7 0 0 0 0 1.4m-8.515-3.908a.408.408 0 1 1-.817 0 .408.408 0 0 1 .817 0m2.216-1.109a.583.583 0 1 1-1.167.001.583.583 0 0 1 1.167 0m-4.082-2.333a.467.467 0 1 1-.934 0 .467.467 0 0 1 .934 0"/><path fill="#263238" stroke="#263238" stroke-linecap="round" stroke-linejoin="round" stroke-miterlimit="10" d="M85.126 27.39s5.038 6.926 10.404 6.459 6.86-4.01 7.91-1.91.308 5.141-3.5 7.35c-5.881 3.411-13.003.11-15.219-3.038-2.216-3.15-3.329-8.627.405-8.86"/><path fill="#98E4FF" stroke="#263238" stroke-linecap="round" stroke-linejoin="round" stroke-miterlimit="10" d="M87.105 52.949s-2.178-.467-6.38 1.089c-4.2 1.556-3.733 9.335-.933 11.67 2.801 2.333 6.38 3.578 6.38 3.578s-.779 3.112.933 4.357 6.38 2.8 6.38 2.8-.312 2.801 1.866 4.98c2.178 2.177 5.913 2.177 6.691 1.555s1.867-1.4 1.867-1.4 4.823 3.734 6.69 3.112 3.89-1.556 3.89-1.556 4.357 2.645 7.935 2.334c3.579-.311 7.624-1.556 7.78-4.201s-2.023-6.69-2.49-7.468-1.245-2.956-1.245-2.956.622-1.09-.933-2.956c-1.556-1.867-5.757-5.446-6.068-6.068s-.467-3.734-1.4-5.135c-.934-1.4-10.736-6.223-13.537-6.379-2.8-.155-5.29 1.245-5.29 1.245s-.621-.31-4.978-1.089c-4.357-.78-6.691.31-7.158 2.488"/><path stroke="#263238" stroke-linecap="round" stroke-linejoin="round" stroke-miterlimit="10" d="M87.107 61.876c-.115 1.879-.306 3.896-.624 5.698m.777-12.447s.05 2.306-.077 5.267m10.634 6.149c-2.297 6.642-4.333 9.9-4.333 9.9m6.068-23.183s1.245 4.2-1.245 11.825m17.513 1.3C113.491 70.42 109.419 77 105.62 80.8m12.136-17.893s-.379.722-1.037 1.896m6.179 11.062c-2.346 2.601-5.963 6.29-8.41 7.268m10.736-9.957s-.519.635-1.351 1.59"/><path fill="#fff" stroke="#263238" stroke-linecap="round" stroke-linejoin="round" stroke-miterlimit="10" d="M88.561 156.584c15.075-15.075 15.075-39.516 0-54.59s-39.515-15.075-54.59 0-15.075 39.515 0 54.59 39.515 15.075 54.59 0"/><path fill="#fff" stroke="#263238" stroke-linecap="round" stroke-linejoin="round" stroke-miterlimit="10" d="M68.695 130.699s-3.315 1.45-4.213 5.662c-.897 4.213.83 13.052 6.008 14.916 5.18 1.864 11.256 1.45 15.4-3.729 4.143-5.179 4.005-5.455 4.971-8.148.967-2.694-1.726-9.461-5.386-11.74s-9.668-2.762-10.151-1.726-.415 1.588-1.174 2.071c-.76.484-4.212 1.934-5.455 2.694"/><path fill="#98E4FF" stroke="#263238" stroke-linecap="round" stroke-linejoin="round" stroke-miterlimit="10" d="M75.67 132.356s-2.072-.415-3.246 1.311c-1.174 1.727-1.45 3.936-.69 4.972.759 1.036.276 2.348 1.518 3.453 1.243 1.105 4.834 2.14 7.182.345s4.765-7.527 1.588-9.53c-3.176-2.001-5.8-3.59-6.353-.551"/><path fill="#fff" stroke="#263238" stroke-linecap="round" stroke-linejoin="round" stroke-miterlimit="10" d="M67.66 135.463s-5.249-2.209-8.978-1.933-7.872 1.933-9.668 5.179-2.279 6.353-1.45 8.77 2.417 2.831 2.762 5.11 4.074 6.215 9.53 5.939 10.082-2.278 11.532-9.115-.069-11.395-3.729-13.95"/><path fill="#98E4FF" stroke="#263238" stroke-linecap="round" stroke-linejoin="round" stroke-miterlimit="10" d="M59.166 140.988s-2.763.276-3.798 2.554c-1.036 2.279-.414 5.525 1.243 6.768s5.041 2.14 6.215 1.381 3.315-2.278 3.522-4.626-.552-4.765-1.864-5.456c-1.313-.69-4.214-1.105-5.318-.621m-14.803 4.848a3.62 3.62 0 0 1-3.18-1.889c-7.63-14.023-10.575-25.396-10.697-25.873a3.617 3.617 0 0 1 7.01-1.788c.05.194 2.899 11.077 10.04 24.205a3.618 3.618 0 0 1-3.173 5.345"/><path stroke="#263238" stroke-linecap="round" stroke-linejoin="round" stroke-miterlimit="10" stroke-width=".75" d="m41.612 129.528-6.414-4.797s2.716.925 3.871 1.734c1.156.809 2.08 1.907 2.08 1.907m3.064 8.553-6.415-4.797s2.716.925 3.872 1.734 2.08 1.907 2.08 1.907m2.716 7.627-6.414-4.796s2.715.925 3.871 1.733c1.156.809 2.08 1.907 2.08 1.907m-8.436-22.016-6.414-4.797s2.716.925 3.872 1.734 2.08 1.907 2.08 1.907"/><path fill="#98E4FF" stroke="#263238" stroke-linecap="round" stroke-linejoin="round" stroke-miterlimit="10" d="M50.036 136.58a3.62 3.62 0 0 1-3.18-1.89c-7.629-14.024-10.574-25.396-10.696-25.874a3.617 3.617 0 0 1 7.01-1.787c.05.194 2.898 11.077 10.04 24.205a3.617 3.617 0 0 1-3.174 5.346"/><path stroke="#263238" stroke-linecap="round" stroke-linejoin="round" stroke-miterlimit="10" stroke-width=".75" d="m47.285 120.272-6.414-4.797s2.715.925 3.871 1.734 2.08 1.907 2.08 1.907m3.064 8.552-6.415-4.797s2.716.925 3.872 1.734 2.08 1.907 2.08 1.907m2.717 7.628-6.415-4.796s2.716.924 3.872 1.733 2.08 1.907 2.08 1.907m-8.437-22.016-6.414-4.797s2.716.925 3.871 1.734c1.156.809 2.08 1.907 2.08 1.907"/><path fill="#fff" stroke="#263238" stroke-linecap="round" stroke-linejoin="round" stroke-miterlimit="10" d="M63.093 121.78s2.939 5.577 3.059 6.357c.12.779 1.738.239 1.738.239s13.373-5.396 15.891-7.375 7.436-3.059 7.256-4.498-4.677-10.134-6.596-13.073-3.837-8.155-5.277-8.695-4.137 1.619-7.435 3.418-12.473 4.198-13.073 6.717 4.437 16.91 4.437 16.91"/><path fill="#D1D1D1" stroke="#263238" stroke-linecap="round" stroke-linejoin="round" stroke-miterlimit="10" d="M91.036 116.503c-.174-1.388-4.363-9.526-6.382-12.737 1.996 4.144 4.732 9.868 4.883 10.398.24.84.54 2.099-.06 2.639s-2.338.9-3.897 1.499c-1.56.6-17.09 8.276-17.09 8.276s-1.38.599-1.679.059c-.3-.539-5.637-13.431-7.495-18.409a22 22 0 0 1-.648-1.969c.534 4.399 4.425 15.521 4.425 15.521s2.939 5.577 3.059 6.356 1.738.24 1.738.24 13.372-5.397 15.891-7.376c2.518-1.978 7.436-3.057 7.255-4.497"/><path fill="#fff" stroke="#263238" stroke-linecap="round" stroke-linejoin="round" stroke-miterlimit="10" d="M50.747 96.29s-2.19-.397-2.19 2.091-.597 23.092.299 24.286 2.587 1.294 3.483 1.195c.896-.1 15.726-.896 18.214-.697 2.489.199 2.787-.299 2.787-2.09 0-1.792 1.095-23.29.597-23.888-.498-.597-.797-.996-1.792-.996s-10.948.1-14.034.1z"/><path fill="#D1D1D1" stroke="#263238" stroke-linecap="round" stroke-linejoin="round" stroke-miterlimit="10" d="M73.34 121.075c0-1.792 1.095-23.291.597-23.888-.321-.385-.562-.686-.958-.852l-.112.02s.18.48.36 1.38-.72 22.427-.84 23.506-1.618.72-5.216.72c-3.599 0-10.614-.12-12.893.48-2.278.599-3.837.179-4.677-.24-.675-.338-1.039-2.337-1.156-3.111.073 1.937.2 3.296.41 3.577.896 1.195 2.588 1.294 3.484 1.195.895-.1 15.725-.896 18.214-.697s2.787-.299 2.787-2.09"/><path stroke="#263238" stroke-linecap="round" stroke-linejoin="round" stroke-miterlimit="10" stroke-width=".75" d="M51.957 98.915a.568.568 0 1 1-1.137 0 .568.568 0 0 1 1.137 0m3.691 2.84a.738.738 0 1 0 0-1.477.738.738 0 0 0 0 1.477m-3.123 2.612a.455.455 0 1 0-.001-.909.455.455 0 0 0 0 .909m3.067 1.476a.454.454 0 1 0 0-.908.454.454 0 0 0 0 .908m12.834-4.94a.625.625 0 1 1-1.25 0 .625.625 0 0 1 1.25 0m17.376 15.843a.681.681 0 1 0 0-1.363.681.681 0 0 0 0 1.363m-2.668-3.747a.511.511 0 1 0 0-1.023.511.511 0 0 0 0 1.023m-3.578-6.19a.397.397 0 1 1-.795 0 .397.397 0 0 1 .795 0m3.18 1.078a.568.568 0 1 1-1.136 0 .568.568 0 0 1 1.136 0"/><path fill="#263238" stroke="#263238" stroke-linecap="round" stroke-linejoin="round" stroke-miterlimit="10" d="M152.285 101.091s-4.289-5.673-9.65-4.085c-5.361 1.59-3.645 7.49-5.146 8.397-1.501.908-9.65.454-11.365 5.901s1.287 11.575-.214 13.618-12.008-2.27-14.582 9.078c-2.573 11.348 6.862 12.936 4.718 15.659s-4.074 3.404-3.217 7.263c.858 3.858 5.36 3.177 4.717 6.127s-4.288 3.858-2.144 9.532 7.505 3.632 10.292 4.539c2.788.908 3.002 4.312 8.149 4.539s10.721-3.858 12.222-3.178 42.457.227 48.676-2.042c6.219-2.27 12.223-2.497 13.295-7.49s-.858-4.993 2.788-7.717 3.645-8.851 1.072-12.482c-2.573-3.632-4.074-4.539-3.217-8.851.858-4.313 4.289-4.993.858-10.894s-7.72-7.036-8.149-8.625c-.428-1.588-1.666-12.536-8.478-16.823-4.203-2.645-12.75-2.24-16.395-2.921-3.646-.68-4.074-6.355-12.437-7.49-8.363-1.133-12.222 4.541-11.793 7.945"/><path fill="#98E4FF" stroke="#263238" stroke-linecap="round" stroke-linejoin="round" stroke-miterlimit="10" d="M236.1 252.891c-.643-5.79-3.431-17.798-5.575-24.659s-7.934-32.808-11.579-40.742-13.509-12.223-21.015-13.081c-7.505-.857-14.581 3.432-14.581 3.432-4.064 1.548-17.731 11.652-20.357 13.607-2.627-1.955-16.294-12.059-20.358-13.607 0 0-7.076-4.289-14.581-3.432-7.506.858-17.369 5.147-21.015 13.081-3.645 7.934-9.434 33.88-11.579 40.742-2.144 6.861-4.932 18.869-5.575 24.659s10.292 20.157 13.938 20.371c3.645.215 18.87-21.872 18.87-21.872l-3.216 20.156h87.031l-3.217-20.156s15.225 22.087 18.87 21.872 14.582-14.581 13.939-20.371"/><path fill="#fff" stroke="#263238" stroke-linecap="round" stroke-linejoin="round" stroke-miterlimit="10" d="M150.591 107.871s1.423 3.379 4.446 4.98c3.023 1.6 9.602-2.668 8.891.355s-2.312 6.224 1.956 8.003 9.07-2.49 9.247.71c.178 3.201-.711 7.113 2.845 8.181s5.513-.356 6.047.355c.533.712 2.312 3.023 2.49 4.268.177 1.245 3.023 16.716 1.956 22.229-1.066 5.512-7.469 18.316-6.935 21.518.533 3.2 2.49 3.912 2.49 10.136 0 6.225-9.07 19.917-16.005 22.585s-15.827-4.98-19.562-13.693c-3.734-8.714-5.157-17.783-5.157-20.984s-5.335-9.781-6.402-13.693-2.994-24.29-2.093-29.787c1.196-7.298-.039-8.642 3.34-11.131s6.579-4.073 7.645-6.74c1.066-2.668 4.801-7.292 4.801-7.292"/><path fill="#263238" stroke="#263238" stroke-linecap="round" stroke-linejoin="round" stroke-miterlimit="10" d="M174.995 178.863s-6.608 5.01-15.057 11.255-18.188 2.747-18.188 2.747l4.316-14.382s10.604 4.92 15.912 5.339c5.307.419 13.017-4.959 13.017-4.959"/><path stroke="#263238" stroke-linecap="round" stroke-linejoin="round" stroke-miterlimit="10" d="M158.06 145.927s-1.422 2.668-1.422 4.268 2.134 2.312 2.845 2.49m-9.07 9.247s1.956 1.956 8.714 1.6 10.315-2.845 12.626-4.979m-19.037-26.556c-.577.055-7.668-4.388-13.291 3.702m25.406-4.543s7.402-5.889 14.133.168"/><path fill="#263238" stroke="#263238" stroke-linecap="round" stroke-linejoin="round" stroke-miterlimit="10" d="M150.06 140.706c1.036 0 1.875-1.14 1.875-2.545s-.839-2.544-1.875-2.544c-1.035 0-1.874 1.139-1.874 2.544s.839 2.545 1.874 2.545"/><path stroke="#263238" stroke-linecap="round" stroke-linejoin="round" stroke-miterlimit="10" d="M143.499 143.116s-1.473-7.097 6.561-7.499"/><path fill="#263238" stroke="#263238" stroke-linecap="round" stroke-linejoin="round" stroke-miterlimit="10" d="M174.966 136.153c0 1.405-.839 2.544-1.875 2.544-1.035 0-1.875-1.139-1.875-2.544s.84-2.545 1.875-2.545c1.036.001 1.875 1.14 1.875 2.545"/><path stroke="#263238" stroke-linecap="round" stroke-linejoin="round" stroke-miterlimit="10" d="M166.932 140.572s-1.607-7.9 6.829-6.695m-32.547 12.459s4.449-1.808 8.064-1.251m21.829-2.92s6.395-.695 9.176.556"/><path fill="#fff" stroke="#263238" stroke-linecap="round" stroke-linejoin="round" stroke-miterlimit="10" d="M129.635 136.813s-4.799 12.341-6.514 19.197-1.942 7.656-.228 9.599c1.713 1.942 12.912 17.369 13.14 18.169.229.799-2.171 6.056-2.171 6.056l8.913 6.399s7.542-11.313 7.656-15.541-3.656-10.055-5.142-11.427-11.199-11.312-11.199-11.312 3.543-9.713 3.428-14.056c-.114-4.342-2.399-3.77-2.399-3.77s-.457-4.914-1.371-5.599-2.171.571-2.4 1.028c-.228.457-1.713 1.257-1.713 1.257"/><path stroke="#263238" stroke-linecap="round" stroke-linejoin="round" stroke-miterlimit="10" d="M135.12 140.127s-4.343 11.884-5.828 15.198-1.942 4.456-.914 5.599 1.486 1.828 1.486 1.828m1.484-27.196s-3.656 9.256-4.228 12.57-4.113 11.541-3.542 13.141m.572.914s-.343.457 2.057 2.057"/><path fill="#98E4FF" stroke="#263238" stroke-linecap="round" stroke-linejoin="round" stroke-miterlimit="10" d="M130.152 186.977s6.959 2.676 11.598 5.887c4.638 3.212 5.888 4.639 5.53 6.067s-13.917 33.186-15.879 39.965c-1.963 6.78-7.315 22.124-15.701 29.083s-16.057 6.066-18.734 3.39c-2.676-2.677-8.563-10.884-7.315-16.95s.179-12.667 13.917-28.546c6.77-7.826 22.124-33.008 23.194-34.435 1.071-1.428 1.249-5.353 3.39-4.461"/><path fill="#fff" stroke="#263238" stroke-linecap="round" stroke-linejoin="round" stroke-miterlimit="10" d="M194.127 136.641s5.103 12.219 6.986 19.03 2.132 7.606.467 9.59-12.478 17.684-12.687 18.489 2.32 6.001 2.32 6.001l-8.752 6.617s-7.819-11.122-8.038-15.345 3.406-10.143 4.858-11.551 10.914-11.586 10.914-11.586-3.781-9.622-3.775-13.966 2.305-3.829 2.305-3.829.336-4.924 1.232-5.632c.898-.708 2.185.518 2.425.969s1.745 1.213 1.745 1.213"/><path stroke="#263238" stroke-linecap="round" stroke-linejoin="round" stroke-miterlimit="10" d="M188.725 140.09s4.636 11.773 6.203 15.049 2.052 4.407 1.052 5.574c-1 1.168-1.44 1.865-1.44 1.865m-2.158-27.151s3.885 9.163 4.538 12.461 4.399 11.436 3.867 13.049m-.549.928s.354.449-2.005 2.108"/><path fill="#98E4FF" stroke="#263238" stroke-linecap="round" stroke-linejoin="round" stroke-miterlimit="10" d="M195.153 186.977s-6.958 2.676-11.597 5.887c-4.639 3.212-5.888 4.639-5.531 6.067s13.917 33.186 15.879 39.965c1.963 6.78 7.316 22.124 15.701 29.083s16.058 6.066 18.734 3.39c2.677-2.677 8.564-10.884 7.315-16.95s-.178-12.667-13.916-28.546c-6.771-7.826-22.124-33.008-23.195-34.435-1.07-1.428-1.248-5.353-3.39-4.461"/><path stroke="#263238" stroke-linecap="round" stroke-linejoin="round" stroke-miterlimit="10" d="M157.837 240.643a65 65 0 0 0 3.44 4.779m-15.236-35.252s1.785 12.9 9.24 26.244m-12.227-17.281s3.286 23.301 10.157 33.757m24.422-30.901c-1.164 4.627-2.932 9.76-5.602 14.172m7.768-27.484s-.195 3.515-1.103 8.419"/><path fill="#263238" stroke="#263238" stroke-linecap="round" stroke-linejoin="round" stroke-miterlimit="10" d="M163.186 297.912c27.873 0 50.468-6.768 50.468-15.118s-22.595-15.119-50.468-15.119c-27.872 0-50.467 6.769-50.467 15.119s22.595 15.118 50.467 15.118"/><path fill="#fff" stroke="#263238" stroke-linecap="round" stroke-linejoin="round" stroke-miterlimit="10" d="M163.186 296.01c29.456 0 53.334-6.769 53.334-15.118s-23.878-15.119-53.334-15.119c-29.455 0-53.333 6.769-53.333 15.119s23.878 15.118 53.333 15.118"/><path fill="#fff" stroke="#263238" stroke-linecap="round" stroke-linejoin="round" stroke-miterlimit="10" d="M163.186 294.273c28.261 0 51.171-6.243 51.171-13.944 0-7.7-22.91-13.943-51.171-13.943s-51.171 6.243-51.171 13.943c0 7.701 22.91 13.944 51.171 13.944"/><path stroke="#263238" stroke-linecap="round" stroke-linejoin="round" stroke-miterlimit="10" d="M163.186 293.838c21.313 0 38.59-4.807 38.59-10.736s-17.277-10.736-38.59-10.736c-21.312 0-38.589 4.806-38.589 10.736 0 5.929 17.277 10.736 38.589 10.736"/><path fill="#D1D1D1" stroke="#263238" stroke-linecap="round" stroke-linejoin="round" stroke-miterlimit="10" d="M126.333 295.011s26.91-11.274 29.758-12.451c2.906-1.201 4.151-.455 4.151-.455s10.415-5.182 18.734-9.361c8.903-4.473 14.326-7.833 17.982-8.285 3.681-.454 3.328 3.095 1.036 4.802-2.234 1.663-22.341 8.588-26.327 10.339-3.873 1.702-7.456 3.017-8.644 3.748-1.174.722-7.336 3.046-8.362 3.521-1.018.471-11.976 5.451-17.9 7.321-5.722 1.807-8.144 1.807-9.492 1.718-1.35-.089-1.213-.357-.936-.897"/><path fill="#D1D1D1" stroke="#263238" stroke-linecap="round" stroke-linejoin="round" stroke-miterlimit="10" d="M191.813 291.642c-1.633-1.957-6.446-5.257-7.085-5.371s-1.042 0-.7.484c.34.481 3.267 2.443 5.173 4.102 1.391 1.211 2.694 2.591 3.25 3.199l-.442.194a31 31 0 0 1-1.66-1.758c-1.225-1.399-6.762-5.2-7.177-5.369-.416-.17-1.015-.226-1.044.113-.028.336 2.406 1.663 4.834 3.542 1.852 1.435 3.654 3.141 4.325 3.79l-.395.174c-.544-.453-1.74-1.401-3.28-2.634-2.05-1.641-5.567-4.089-6.084-4.34-.478-.232-.97-.223-.905.056.066.278 2.619 1.727 4.824 3.428 1.759 1.357 3.933 3.231 4.639 3.844l-.508.224s-6.033-5.029-9.302-6.583c-3.364-1.599-6.032-2.382-5.72-3.178 0 0-2.92-.335-6.001-1.83-3.163-1.535-19.254-8.9-26.813-11.927-7.934-3.177-11.137-3.796-9.278-5.324 1.903-1.564 4.874-1.564 8.916.453 3.923 1.957 22.078 13.029 22.949 13.395.865.364 4.309 2.85 7.6 3.541 3.253.683 7.363-.207 10.16.615 2.758.81 10.148 5.193 11.62 9.022l-.309.136c-.235-.326-.696-.931-1.587-1.998"/></svg>